<?xml version="1.0" standalone="no"?>
<!DOCTYPE svg PUBLIC "-//W3C//DTD SVG 20010904//EN"
 "http://www.w3.org/TR/2001/REC-SVG-20010904/DTD/svg10.dtd">
<svg version="1.0" xmlns="http://www.w3.org/2000/svg"
 width="600.000000pt" height="315.000000pt" viewBox="0 0 600.000000 315.000000"
 preserveAspectRatio="xMidYMid meet">

<g transform="translate(0.000000,315.000000) scale(0.100000,-0.100000)"
fill="#000000" stroke="none">
<path d="M2610 2629 c-52 -5 -108 -10 -123 -11 l-29 -3 2 -469 c0 -258 3 -473
5 -477 8 -11 206 -151 210 -147 12 11 37 192 42 298 12 256 -50 493 -177 679
-22 34 -38 61 -36 61 10 0 83 -115 119 -185 19 -39 47 -109 62 -157 l27 -86
76 -28 c42 -15 77 -23 79 -18 12 35 42 81 66 98 27 20 45 21 310 26 351 7 374
15 285 101 -54 52 -192 119 -340 163 -116 35 -407 97 -523 112 -33 4 -52 10
-43 12 45 9 476 -78 623 -127 33 -11 60 -19 61 -18 1 1 -17 40 -40 87 l-41 85
-65 6 c-89 9 -434 7 -550 -2z m-22 -26 c-10 -2 -26 -2 -35 0 -10 3 -2 5 17 5
19 0 27 -2 18 -5z"/>
<path d="M3322 1909 c17 -7 38 -7 60 0 30 8 28 9 -27 9 -50 0 -56 -1 -33 -9z"/>
<path d="M3118 1829 c-197 -47 -329 -153 -354 -283 l-7 -39 54 7 c42 5 58 13
73 33 23 30 73 53 116 53 24 0 43 12 85 53 48 49 120 167 113 186 -2 5 -38 0
-80 -10z"/>
<path d="M2627 1293 c-22 -59 -65 -162 -97 -229 l-57 -121 111 -7 c260 -15
644 -2 791 25 69 13 95 29 48 29 -48 0 -168 27 -259 59 -168 57 -306 161 -374
280 -28 48 -40 60 -60 61 -14 0 -34 3 -45 5 -18 5 -25 -8 -58 -102z"/>
<path d="M3501 1136 c-13 -69 -22 -146 -16 -146 2 0 15 5 29 11 29 14 36 34
36 115 0 53 -3 62 -20 67 -16 4 -20 -3 -29 -47z"/>
</g>
</svg>
