<?xml version="1.0" encoding="UTF-8"?>
<svg version="1.1" xmlns="http://www.w3.org/2000/svg" width="238" height="242">
<path d="M0 0 C3.33033413 -0.00968684 6.66004456 -0.04080236 9.99023438 -0.07226562 C28.84756709 -0.16592194 48.5684745 0.11353627 65.46679688 9.47851562 C68.02536671 12.0314249 68.26179617 14.40885418 68.91992188 17.92773438 C69.15710938 19.18328125 69.39429688 20.43882813 69.63867188 21.73242188 C69.93257812 23.46878906 69.93257812 23.46878906 70.23242188 25.24023438 C70.43351562 26.41972656 70.43351562 26.41972656 70.63867188 27.62304688 C71.34879683 32.49529309 71.31695594 37.3327065 71.23242188 42.24023438 C64.52269958 45.26664933 58.84837923 45.66746416 51.54101562 45.64648438 C50.43693863 45.65732056 49.33286163 45.66815674 48.19532776 45.67932129 C43.50045836 45.72496196 38.80564707 45.73665091 34.1105957 45.75146484 C30.67053787 45.76719137 27.23093585 45.80019332 23.79101562 45.83398438 C22.73667831 45.83096313 21.682341 45.82794189 20.59605408 45.8248291 C14.72132143 45.88454503 10.37489452 46.29549943 5.23242188 49.24023438 C2.98576053 52.61022639 2.98668478 53.80128899 3.04492188 57.74023438 C3.05458984 59.17882812 3.05458984 59.17882812 3.06445312 60.64648438 C3.12949256 63.35521204 3.12949256 63.35521204 4.23242188 66.24023438 C15.58868142 70.36896557 28.67917141 70.18638731 40.61523438 70.89697266 C43.15001855 71.05161341 45.68323074 71.22318534 48.21679688 71.39648438 C49.3822403 71.45757385 49.3822403 71.45757385 50.57122803 71.51989746 C52.73925781 71.671875 52.73925781 71.671875 56.23242188 72.24023438 C59.50642509 77.1512392 58.75584468 82.50297657 58.23242188 88.24023438 C56.73351326 94.47730379 53.11822548 97.55566237 47.84179688 100.91601562 C41.69385524 104.03600397 35.89389035 105.70703217 29.04492188 106.36523438 C28.31313721 106.44596191 27.58135254 106.52668945 26.82739258 106.60986328 C21.18507283 107.21284054 15.54196686 107.54137395 9.86914062 107.70117188 C6.54197856 108.38139168 5.35484212 109.64670483 3.23242188 112.24023438 C1.63136584 115.44234645 1.8757378 118.75770072 2.23242188 122.24023438 C3.96520628 127.07379086 5.68786935 128.97642133 10.23242188 131.24023438 C22.73698445 134.01785984 35.93101091 133.63088983 48.66992188 133.80273438 C51.61938832 133.84674191 54.56874996 133.89325708 57.51808167 133.94554138 C59.33647032 133.97741099 61.154954 134.00432808 62.97349548 134.02577209 C69.12043602 134.12824852 69.12043602 134.12824852 70.23242188 135.24023438 C70.2614522 137.1217389 70.21889851 139.00443102 70.14648438 140.88476562 C70.10265625 142.03654297 70.05882812 143.18832031 70.01367188 144.375 C69.93632812 146.19547852 69.93632812 146.19547852 69.85742188 148.05273438 C69.81359375 149.25478516 69.76976562 150.45683594 69.72460938 151.6953125 C69.29115325 162.48957411 69.29115325 162.48957411 68.23242188 165.24023438 C48.80725517 174.75567463 24.82036486 173.42246293 3.73242188 173.36523438 C2.76074066 173.36401581 1.78905945 173.36279724 0.78793335 173.36154175 C-10.29837305 173.34518098 -21.37819129 173.30219706 -32.45507812 172.80273438 C-33.32519531 172.7635791 -34.1953125 172.72442383 -35.09179688 172.68408203 C-40.62887788 172.37893462 -40.62887788 172.37893462 -41.76757812 171.24023438 C-41.84519814 169.0891898 -41.85025247 166.93555315 -41.83007812 164.78320312 C-41.82139618 163.31933722 -41.81294722 161.85546991 -41.8046875 160.39160156 C-41.79848389 159.59089233 -41.79228027 158.79018311 -41.78588867 157.96520996 C-41.68386682 143.82702133 -41.75924953 129.69328815 -41.98632812 115.55664062 C-41.99733614 114.87106016 -42.00834415 114.1854797 -42.01968575 113.47912407 C-42.077103 109.93065523 -42.13579624 106.38220855 -42.19509888 102.83377075 C-42.74993484 69.63243572 -42.89033403 36.44612345 -42.76757812 3.24023438 C-29.66879022 -1.59480632 -13.76963027 0.02411494 0 0 Z " fill="#B1651D" transform="translate(105.767578125,10.759765625)"/>
<path d="M0 0 C0.66 0 1.32 0 2 0 C2.66 2.31 3.32 4.62 4 7 C16.08020275 10.07858363 27.9862591 10.91873872 40.3828125 11.65673828 C42.91759667 11.81137903 45.45080887 11.98295097 47.984375 12.15625 C48.76133728 12.19697632 49.53829956 12.23770264 50.33880615 12.27966309 C52.50683594 12.43164062 52.50683594 12.43164062 56 13 C59.27400322 17.91100483 58.52342281 23.26274219 58 29 C56.50109138 35.23706942 52.8858036 38.315428 47.609375 41.67578125 C41.46143337 44.79576959 35.66146847 46.46679779 28.8125 47.125 C27.714823 47.24609131 27.714823 47.24609131 26.5949707 47.36962891 C20.95265096 47.97260616 15.30954499 48.30113958 9.63671875 48.4609375 C6.30955668 49.1411573 5.12242025 50.40647045 3 53 C1.39894396 56.20211208 1.64331592 59.51746635 2 63 C3.7327844 67.83355649 5.45544747 69.73618696 10 72 C22.50456258 74.77762546 35.69858904 74.39065545 48.4375 74.5625 C51.38696644 74.60650753 54.33632808 74.65302271 57.28565979 74.70530701 C59.10404845 74.73717661 60.92253212 74.7640937 62.74107361 74.78553772 C68.88801414 74.88801414 68.88801414 74.88801414 70 76 C70.02903033 77.88150452 69.98647663 79.76419665 69.9140625 81.64453125 C69.87023437 82.79630859 69.82640625 83.94808594 69.78125 85.13476562 C69.70390625 86.95524414 69.70390625 86.95524414 69.625 88.8125 C69.58117187 90.01455078 69.53734375 91.21660156 69.4921875 92.45507812 C69.06882447 102.99799362 69.06882447 102.99799362 68 106 C63.77886628 108.6452438 59.54872196 108.02914456 54.8125 107.4375 C53.63034912 107.29368896 53.63034912 107.29368896 52.42431641 107.14697266 C33.11205136 104.55129995 15.73634018 97.93304043 1 85 C0.12794922 84.37544922 0.12794922 84.37544922 -0.76171875 83.73828125 C-5.56385132 80.29090648 -7.92992156 75.40418708 -10 70 C-10 69.01 -10 68.02 -10 67 C-10.66 67 -11.32 67 -12 67 C-14.75873821 60.18429383 -14.26167155 53.16358479 -13 46 C-11.4921875 43.24609375 -11.4921875 43.24609375 -10 41 C-9.29329272 38.30745009 -9.29329272 38.30745009 -9 36 C-8.34 36 -7.68 36 -7 36 C-6.67 35.34 -6.34 34.68 -6 34 C-5.38125 33.7525 -4.7625 33.505 -4.125 33.25 C-1.1149803 31.47940018 -0.36252067 29.13379754 1 26 C1.33 26.66 1.66 27.32 2 28 C2.66 28 3.32 28 4 28 C4 27.34 4 26.68 4 26 C6.97 25.67 9.94 25.34 13 25 C13.12375 24.030625 13.2475 23.06125 13.375 22.0625 C13.684375 20.5465625 13.684375 20.5465625 14 19 C14.66 18.67 15.32 18.34 16 18 C15.814375 17.360625 15.62875 16.72125 15.4375 16.0625 C15.293125 15.381875 15.14875 14.70125 15 14 C15.33 13.67 15.66 13.34 16 13 C15.030625 12.896875 14.06125 12.79375 13.0625 12.6875 C7.85937779 11.95481544 2.70238027 10.35119014 -2 8 C-1.33333333 5.33333333 -0.66666667 2.66666667 0 0 Z " fill="#CD8A3A" transform="translate(106,70)"/>
<path d="M0 0 C3.70525583 3.38766247 6.17259762 6.76945992 8.734375 11.07421875 C10.48174823 13.73303048 12.72667531 15.78982322 15 18 C16 21 16 21 16 24 C16.66 24.66 17.32 25.32 18 26 C18.61350042 28.1894648 19.14559812 30.40231857 19.625 32.625 C20.01558594 34.40777344 20.01558594 34.40777344 20.4140625 36.2265625 C20.60742188 37.14179687 20.80078125 38.05703125 21 39 C21.66 39 22.32 39 23 39 C24.61949011 41.57213134 25.04408751 42.67669159 24.625 45.75 C24.315625 46.86375 24.315625 46.86375 24 48 C25.32 48.66 26.64 49.32 28 50 C27.83242187 50.68707031 27.66484375 51.37414062 27.4921875 52.08203125 C27.28851563 52.98308594 27.08484375 53.88414063 26.875 54.8125 C26.66617188 55.70582031 26.45734375 56.59914062 26.2421875 57.51953125 C25.71119478 60.25246634 25.71119478 60.25246634 28 63 C27.34 63 26.68 63 26 63 C26 65.31 26 67.62 26 70 C26.66 70.33 27.32 70.66 28 71 C27.67 71.33 27.34 71.66 27 72 C26.63239269 74.32817964 26.29758419 76.6618385 26 79 C26.66 79.33 27.32 79.66 28 80 C27.34 80 26.68 80 26 80 C25.97311849 81.64574566 25.95365877 83.29161413 25.9375 84.9375 C25.92589844 85.85402344 25.91429688 86.77054687 25.90234375 87.71484375 C25.74050951 89.96593327 25.74050951 89.96593327 27 91 C27.04063832 92.66617115 27.042721 94.33388095 27 96 C26.01 96.495 26.01 96.495 25 97 C24.34582191 99.24810177 24.34582191 99.24810177 23.9375 101.875 C23.43729298 104.7108844 22.91310717 107.26067849 22 110 C21.34 110 20.68 110 20 110 C19.89816406 111.12664062 19.79632813 112.25328125 19.69140625 113.4140625 C19.07278968 118.31350575 17.60734113 122.74351071 15.9375 127.375 C15.63094482 128.23770508 15.32438965 129.10041016 15.00854492 129.98925781 C11.79285028 138.86136824 8.03147621 147.47148108 4 156 C3.66274902 156.74443359 3.32549805 157.48886719 2.97802734 158.25585938 C2.63852051 158.98095703 2.29901367 159.70605469 1.94921875 160.453125 C1.64717529 161.10958008 1.34513184 161.76603516 1.03393555 162.44238281 C0 164 0 164 -3 165 C-2.99476318 164.14438477 -2.98952637 163.28876953 -2.98413086 162.40722656 C-2.85026733 136.26486499 -3.16555207 110.13488329 -3.60854244 83.99703407 C-3.84386181 70.07196121 -4.05259766 56.14719905 -4.08811951 42.21995735 C-4.09352903 40.30104121 -4.10337178 38.38213912 -4.11340332 36.46324158 C-4.11896516 25.56467583 -3.28333578 14.81668728 -2 4 C-1.01 4 -0.02 4 1 4 C0.67 2.68 0.34 1.36 0 0 Z " fill="#B76A22" transform="translate(67,17)"/>
<path d="M0 0 C0.8146875 0.29003906 1.629375 0.58007812 2.46875 0.87890625 C6.19212885 2.59894539 7.64528669 4.06281011 9.11328125 7.94140625 C11.05214934 16.16551496 11.62877202 24.57696521 12 33 C10.5459375 31.700625 10.5459375 31.700625 9.0625 30.375 C-16.15867222 8.97217258 -53.45093798 5.13750952 -85 0 C-85 -0.33 -85 -0.66 -85 -1 C-81.535 -1.495 -81.535 -1.495 -78 -2 C-78 -2.33 -78 -2.66 -78 -3 C-68.51364674 -5.18029465 -59.12213323 -5.52053701 -49.4375 -5.75 C-48.23720657 -5.78086197 -48.23720657 -5.78086197 -47.01266479 -5.81234741 C-30.79758343 -6.20814429 -15.3383709 -6.05348627 0 0 Z " fill="#C17124" transform="translate(165,17)"/>
<path d="M0 0 C2.0630775 2.75077 2.77242229 4.36576008 3.0625 7.75 C0.25 8 0.25 8 -2.9375 7.75 C-4.8125 5.75 -4.8125 5.75 -5.9375 3.75 C-8.2475 4.08 -10.5575 4.41 -12.9375 4.75 C-14.10098868 8.24046605 -14.10584776 11.07277017 -14.125 14.75 C-14.13917969 15.9875 -14.15335938 17.225 -14.16796875 18.5 C-14.19621019 21.89759425 -14.19621019 21.89759425 -11.9375 24.75 C-8.85384129 25.0002157 -8.85384129 25.0002157 -5.9375 24.75 C-4.9475 21.285 -4.9475 21.285 -3.9375 17.75 C-5.5875 17.75 -7.2375 17.75 -8.9375 17.75 C-9.31968767 16.09385343 -9.65145102 14.42542976 -9.9375 12.75 C-8.9375 11.75 -8.9375 11.75 -6.72265625 11.6171875 C-5.82417969 11.61976563 -4.92570312 11.62234375 -4 11.625 C-3.10410156 11.62242187 -2.20820313 11.61984375 -1.28515625 11.6171875 C1.0625 11.75 1.0625 11.75 3.0625 12.75 C3.0625 18.36 3.0625 23.97 3.0625 29.75 C-10.92351399 32.5472028 -10.92351399 32.5472028 -15.9375 30.5625 C-20.17866458 26.7189446 -21.75997281 23.67713431 -22.10546875 17.98046875 C-22.17679152 6.86838063 -22.17679152 6.86838063 -19.9375 1.75 C-14.11779032 -4.06970968 -6.69441048 -5.12763356 0 0 Z " fill="#DE8B33" transform="translate(151.9375,197.25)"/>
<path d="M0 0 C2.68118189 5.93335623 4.75495236 11.99300024 6.75 18.1875 C7.07871094 19.17169922 7.40742187 20.15589844 7.74609375 21.16992188 C8.05160156 22.11802734 8.35710937 23.06613281 8.671875 24.04296875 C8.9512793 24.89914795 9.23068359 25.75532715 9.51855469 26.63745117 C10.03213678 29.15770163 9.83014074 30.59335664 9 33 C7.02 33 5.04 33 3 33 C2.34 30.36 1.68 27.72 1 25 C-2.3 25 -5.6 25 -9 25 C-9.2165625 26.7015625 -9.2165625 26.7015625 -9.4375 28.4375 C-10 32 -10 32 -11 33 C-12.99958364 33.04080783 -15.00045254 33.04254356 -17 33 C-18.57514964 29.84970071 -17.1862983 27.58934316 -16.19921875 24.27734375 C-16.00278275 23.61666397 -15.80634674 22.95598419 -15.60395813 22.27528381 C-15.18629787 20.87798907 -14.7649038 19.48180581 -14.34008789 18.08666992 C-13.69000801 15.94575965 -13.05619294 13.80049728 -12.42382812 11.65429688 C-12.01659722 10.29918662 -11.6084256 8.94435863 -11.19921875 7.58984375 C-10.82627686 6.35097412 -10.45333496 5.11210449 -10.0690918 3.83569336 C-8.16010265 -1.22777067 -4.90504532 -0.09083417 0 0 Z M-4 9 C-4.50403768 10.29009643 -5.00309926 11.58213789 -5.5 12.875 C-5.7784375 13.59429687 -6.056875 14.31359375 -6.34375 15.0546875 C-7.10655018 16.97367461 -7.10655018 16.97367461 -7 19 C-5.02 19 -3.04 19 -1 19 C-1.66 15.7 -2.32 12.4 -3 9 C-3.33 9 -3.66 9 -4 9 Z " fill="#E68929" transform="translate(118,195)"/>
<path d="M0 0 C0.79792969 0.00386719 1.59585938 0.00773438 2.41796875 0.01171875 C3.21589844 0.00785156 4.01382813 0.00398437 4.8359375 0 C10.79136108 0.01011108 10.79136108 0.01011108 11.91796875 1.13671875 C11.91796875 2.78671875 11.91796875 4.43671875 11.91796875 6.13671875 C7.95796875 6.13671875 3.99796875 6.13671875 -0.08203125 6.13671875 C-0.08203125 8.44671875 -0.08203125 10.75671875 -0.08203125 13.13671875 C0.62824219 13.12511719 1.33851562 13.11351562 2.0703125 13.1015625 C2.98941406 13.09253906 3.90851563 13.08351562 4.85546875 13.07421875 C5.77199219 13.06261719 6.68851563 13.05101562 7.6328125 13.0390625 C9.91796875 13.13671875 9.91796875 13.13671875 10.91796875 14.13671875 C10.91796875 15.78671875 10.91796875 17.43671875 10.91796875 19.13671875 C7.28796875 19.13671875 3.65796875 19.13671875 -0.08203125 19.13671875 C-0.08203125 21.77671875 -0.08203125 24.41671875 -0.08203125 27.13671875 C3.87796875 27.13671875 7.83796875 27.13671875 11.91796875 27.13671875 C11.91796875 28.78671875 11.91796875 30.43671875 11.91796875 32.13671875 C10.91796875 33.13671875 10.91796875 33.13671875 9.15209961 33.25024414 C8.40323486 33.24500732 7.65437012 33.23977051 6.8828125 33.234375 C6.07392578 33.23115234 5.26503906 33.22792969 4.43164062 33.22460938 C3.58150391 33.21623047 2.73136719 33.20785156 1.85546875 33.19921875 C1.00146484 33.19470703 0.14746094 33.19019531 -0.73242188 33.18554688 C-2.84898788 33.17372248 -4.9655181 33.15578644 -7.08203125 33.13671875 C-7.10668517 28.5977417 -7.12486914 24.05880332 -7.13696289 19.51977539 C-7.14200265 17.97452109 -7.14883445 16.42927159 -7.1574707 14.8840332 C-7.16955201 12.66746846 -7.17526298 10.45096657 -7.1796875 8.234375 C-7.18484879 7.53957535 -7.19001007 6.8447757 -7.19532776 6.12892151 C-7.19552402 4.46442545 -7.14392254 2.80006376 -7.08203125 1.13671875 C-5.19650595 -0.74880655 -2.50434294 0.00425186 0 0 Z " fill="#EA8826" transform="translate(86.08203125,194.86328125)"/>
<path d="M0 0 C0.79792969 0.00386719 1.59585938 0.00773438 2.41796875 0.01171875 C3.21589844 0.00785156 4.01382813 0.00398437 4.8359375 0 C10.79136108 0.01011108 10.79136108 0.01011108 11.91796875 1.13671875 C11.91796875 2.78671875 11.91796875 4.43671875 11.91796875 6.13671875 C7.95796875 6.13671875 3.99796875 6.13671875 -0.08203125 6.13671875 C-0.08203125 8.77671875 -0.08203125 11.41671875 -0.08203125 14.13671875 C0.54445312 14.05292969 1.1709375 13.96914062 1.81640625 13.8828125 C2.63367188 13.78097656 3.4509375 13.67914063 4.29296875 13.57421875 C5.10507813 13.46980469 5.9171875 13.36539063 6.75390625 13.2578125 C8.91796875 13.13671875 8.91796875 13.13671875 10.91796875 14.13671875 C10.91796875 15.78671875 10.91796875 17.43671875 10.91796875 19.13671875 C7.28796875 19.13671875 3.65796875 19.13671875 -0.08203125 19.13671875 C-0.08203125 21.77671875 -0.08203125 24.41671875 -0.08203125 27.13671875 C3.87796875 27.13671875 7.83796875 27.13671875 11.91796875 27.13671875 C11.91796875 28.78671875 11.91796875 30.43671875 11.91796875 32.13671875 C10.03244345 34.02224405 7.34028044 33.26918564 4.8359375 33.2734375 C4.03800781 33.26957031 3.24007812 33.26570313 2.41796875 33.26171875 C1.62003906 33.26558594 0.82210937 33.26945312 0 33.2734375 C-5.95542358 33.26332642 -5.95542358 33.26332642 -7.08203125 32.13671875 C-7.18224055 29.85724083 -7.21284428 27.5746474 -7.21484375 25.29296875 C-7.21580048 24.60867798 -7.2167572 23.92438721 -7.21774292 23.21936035 C-7.21842455 21.77009998 -7.21657148 20.32083657 -7.21240234 18.87158203 C-7.20705377 16.64608947 -7.21234785 14.42079874 -7.21875 12.1953125 C-7.21808922 10.79036414 -7.21680805 9.3854159 -7.21484375 7.98046875 C-7.21371582 6.69333984 -7.21258789 5.40621094 -7.21142578 4.08007812 C-6.98163078 -1.14710788 -4.66968936 0.00792817 0 0 Z " fill="#E6892A" transform="translate(192.08203125,194.86328125)"/>
<path d="M0 0 C0.66 0 1.32 0 2 0 C2.66 2.31 3.32 4.62 4 7 C11.87572521 9.01439941 19.51371709 10.275681 27.609375 10.80859375 C28.43570435 10.86326813 29.26203369 10.9179425 30.11340332 10.97427368 C33.53576776 11.19161192 36.9586562 11.39427842 40.3828125 11.58129883 C42.91799624 11.72390291 45.4508248 11.8897357 47.984375 12.05859375 C48.76133728 12.09415878 49.53829956 12.12972382 50.33880615 12.16636658 C52.50683594 12.31811523 52.50683594 12.31811523 56 13 C57.50097656 15.05883789 57.50097656 15.05883789 58 17 C57.34 17 56.68 17 56 17 C56 16.34 56 15.68 56 15 C54.87505127 15.2673999 53.75010254 15.5347998 52.59106445 15.81030273 C48.40735667 16.80452142 44.22337325 17.79757581 40.03930664 18.7902832 C38.23031221 19.21965416 36.42139214 19.64933855 34.61254883 20.0793457 C32.00882255 20.69825838 29.40482874 21.31603414 26.80078125 21.93359375 C25.99538406 22.12529648 25.18998688 22.31699921 24.36018372 22.51451111 C20.58423002 23.40888502 16.81306342 24.27481616 13 25 C13.375 22.0625 13.375 22.0625 14 19 C14.66 18.67 15.32 18.34 16 18 C15.814375 17.360625 15.62875 16.72125 15.4375 16.0625 C15.293125 15.381875 15.14875 14.70125 15 14 C15.33 13.67 15.66 13.34 16 13 C15.030625 12.896875 14.06125 12.79375 13.0625 12.6875 C7.85937779 11.95481544 2.70238027 10.35119014 -2 8 C-1.33333333 5.33333333 -0.66666667 2.66666667 0 0 Z " fill="#CE7724" transform="translate(106,70)"/>
<path d="M0 0 C2.5 0.125 2.5 0.125 3.5 1.125 C3.58748207 3.05167507 3.60697334 4.98151861 3.59765625 6.91015625 C3.59443359 8.07998047 3.59121094 9.24980469 3.58789062 10.45507812 C3.57951172 11.68677734 3.57113281 12.91847656 3.5625 14.1875 C3.55798828 15.42306641 3.55347656 16.65863281 3.54882812 17.93164062 C3.53699618 20.99611413 3.51906008 24.06056293 3.5 27.125 C7.46 27.125 11.42 27.125 15.5 27.125 C15.5 28.775 15.5 30.425 15.5 32.125 C13.6144747 34.0105253 10.92231169 33.25746689 8.41796875 33.26171875 C7.62003906 33.25785156 6.82210937 33.25398438 6 33.25 C5.20207031 33.25386719 4.40414062 33.25773437 3.58203125 33.26171875 C-2.37339233 33.25160767 -2.37339233 33.25160767 -3.5 32.125 C-3.6002093 29.84552208 -3.63081303 27.56292865 -3.6328125 25.28125 C-3.63376923 24.59695923 -3.63472595 23.91266846 -3.63571167 23.2076416 C-3.6363933 21.75838123 -3.63454023 20.30911782 -3.63037109 18.85986328 C-3.62502252 16.63437072 -3.6303166 14.40907999 -3.63671875 12.18359375 C-3.63605797 10.77864539 -3.6347768 9.37369715 -3.6328125 7.96875 C-3.63168457 6.68162109 -3.63055664 5.39449219 -3.62939453 4.06835938 C-3.45814456 0.17290723 -3.45814456 0.17290723 0 0 Z " fill="#EB8921" transform="translate(164.5,194.875)"/>
<path d="M0 0 C7.45798682 0.28684565 13.76475517 2.90392378 20 7 C21.64449829 9.72715055 22.36224579 12.20636361 22.8515625 15.3359375 C23.04492188 16.56183594 23.04492188 16.56183594 23.2421875 17.8125 C23.36851562 18.658125 23.49484375 19.50375 23.625 20.375 C23.7590625 21.21289062 23.893125 22.05078125 24.03125 22.9140625 C24.7100696 27.31946318 25.1602544 31.52744539 25 36 C23.5459375 34.700625 23.5459375 34.700625 22.0625 33.375 C15.0109251 27.35708969 7.36419575 22.94636376 -1 19 C1 18 1 18 3.3828125 18.77734375 C4.74019531 19.35162109 4.74019531 19.35162109 6.125 19.9375 C7.03507813 20.31777344 7.94515625 20.69804688 8.8828125 21.08984375 C9.58148438 21.39019531 10.28015625 21.69054687 11 22 C15.09709868 18.18639898 15.09709868 18.18639898 16.0625 12.875 C16.041875 11.92625 16.02125 10.9775 16 10 C13.23735711 9.40267181 10.83967231 9 8 9 C8 7.35 8 5.7 8 4 C7.05125 3.71125 6.1025 3.4225 5.125 3.125 C2 2 2 2 0 0 Z " fill="#D57E28" transform="translate(152,14)"/>
<path d="M0 0 C2 3 2 3 2 5 C2.66 5 3.32 5 4 5 C5.61949011 7.57213134 6.04408751 8.67669159 5.625 11.75 C5.41875 12.4925 5.2125 13.235 5 14 C6.32 14.66 7.64 15.32 9 16 C8.83242187 16.68707031 8.66484375 17.37414062 8.4921875 18.08203125 C8.28851563 18.98308594 8.08484375 19.88414063 7.875 20.8125 C7.56175781 22.15248047 7.56175781 22.15248047 7.2421875 23.51953125 C6.71119478 26.25246634 6.71119478 26.25246634 9 29 C8.34 29 7.68 29 7 29 C7 31.31 7 33.62 7 36 C7.66 36.33 8.32 36.66 9 37 C8.505 37.495 8.505 37.495 8 38 C7.63239269 40.32817964 7.29758419 42.6618385 7 45 C7.66 45.33 8.32 45.66 9 46 C8.34 46 7.68 46 7 46 C6.97311849 47.64574566 6.95365877 49.29161413 6.9375 50.9375 C6.92589844 51.85402344 6.91429688 52.77054688 6.90234375 53.71484375 C6.74050951 55.96593327 6.74050951 55.96593327 8 57 C8.04063832 58.66617115 8.042721 60.33388095 8 62 C7.01 62.495 7.01 62.495 6 63 C5.34582191 65.24810177 5.34582191 65.24810177 4.9375 67.875 C4.43729298 70.7108844 3.91310717 73.26067849 3 76 C2.34 76 1.68 76 1 76 C0.89816406 77.134375 0.79632813 78.26875 0.69140625 79.4375 C0.09328854 84.22244167 -1.38170701 88.49968652 -3.0625 93 C-3.34416016 93.77472656 -3.62582031 94.54945313 -3.91601562 95.34765625 C-4.60320298 97.23450967 -5.30054013 99.11766151 -6 101 C-7.4884185 96.39815722 -5.85176526 92.99241298 -4.25 88.625 C-1.528749 80.82997807 0.57759364 73.14822185 2 65 C2.20496094 63.91589844 2.40992187 62.83179688 2.62109375 61.71484375 C5.55048852 43.79502886 5.09743831 25.48766837 0.875 7.8515625 C0 4 0 4 0 0 Z " fill="#E29241" transform="translate(86,51)"/>
<path d="M0 0 C0.79792969 0.00386719 1.59585938 0.00773438 2.41796875 0.01171875 C3.21589844 0.00785156 4.01382813 0.00398437 4.8359375 0 C10.79136108 0.01011108 10.79136108 0.01011108 11.91796875 1.13671875 C11.91796875 2.78671875 11.91796875 4.43671875 11.91796875 6.13671875 C7.95796875 6.13671875 3.99796875 6.13671875 -0.08203125 6.13671875 C-0.08203125 8.11671875 -0.08203125 10.09671875 -0.08203125 12.13671875 C-1.73203125 12.46671875 -3.38203125 12.79671875 -5.08203125 13.13671875 C-5.08203125 19.07671875 -5.08203125 25.01671875 -5.08203125 31.13671875 C0.19796875 31.46671875 5.47796875 31.79671875 10.91796875 32.13671875 C10.91796875 32.46671875 10.91796875 32.79671875 10.91796875 33.13671875 C8.10540594 33.16356187 5.29309634 33.18348063 2.48046875 33.19921875 C1.67802734 33.20759766 0.87558594 33.21597656 0.04882812 33.22460938 C-1.99498346 33.23323305 -4.03887027 33.18900025 -6.08203125 33.13671875 C-7.99053073 31.22821927 -7.21262758 27.82193101 -7.21484375 25.29296875 C-7.21580048 24.60867798 -7.2167572 23.92438721 -7.21774292 23.21936035 C-7.21842455 21.77009998 -7.21657148 20.32083657 -7.21240234 18.87158203 C-7.20705377 16.64608947 -7.21234785 14.42079874 -7.21875 12.1953125 C-7.21808922 10.79036414 -7.21680805 9.3854159 -7.21484375 7.98046875 C-7.21371582 6.69333984 -7.21258789 5.40621094 -7.21142578 4.08007812 C-6.98163078 -1.14710788 -4.66968936 0.00792817 0 0 Z " fill="#E68829" transform="translate(192.08203125,194.86328125)"/>
<path d="M0 0 C0.56847656 0.08378906 1.13695313 0.16757813 1.72265625 0.25390625 C6.75449908 0.91753828 10.95507098 0.79136141 16 0 C18.4375 0.4375 18.4375 0.4375 20 1 C19.67 1.66 19.34 2.32 19 3 C25.435 2.505 25.435 2.505 32 2 C32.495 2.99 32.495 2.99 33 4 C30.77153591 4.31747137 28.54217353 4.62863724 26.3125 4.9375 C25.63856201 5.0317627 24.96462402 5.12602539 24.27026367 5.22314453 C18.75538012 5.96656454 13.27177832 6.3069445 7.70703125 6.4609375 C4.32649568 7.13411774 3.14826018 8.36282543 1 11 C-0.86558515 14.7311703 -0.58899088 19.17481315 0.671875 23.08203125 C1.39083835 24.74717749 2.18887482 26.37774964 3 28 C1.1875 27.5 1.1875 27.5 -1 26 C-4.45487712 19.44764684 -4.09951428 14.20645503 -3 7 C-2.34 7 -1.68 7 -1 7 C-0.67 4.69 -0.34 2.38 0 0 Z " fill="#B17133" transform="translate(108,112)"/>
<path d="M0 0 C0.79792969 0.00386719 1.59585938 0.00773438 2.41796875 0.01171875 C3.21589844 0.00785156 4.01382813 0.00398437 4.8359375 0 C10.79136108 0.01011108 10.79136108 0.01011108 11.91796875 1.13671875 C11.91796875 2.78671875 11.91796875 4.43671875 11.91796875 6.13671875 C7.95796875 6.13671875 3.99796875 6.13671875 -0.08203125 6.13671875 C-0.08203125 5.80671875 -0.08203125 5.47671875 -0.08203125 5.13671875 C3.54796875 5.13671875 7.17796875 5.13671875 10.91796875 5.13671875 C10.91796875 4.14671875 10.91796875 3.15671875 10.91796875 2.13671875 C2.99796875 2.63171875 2.99796875 2.63171875 -5.08203125 3.13671875 C-5.08203125 10.72671875 -5.08203125 18.31671875 -5.08203125 26.13671875 C-3.76203125 26.46671875 -2.44203125 26.79671875 -1.08203125 27.13671875 C-0.75203125 26.47671875 -0.42203125 25.81671875 -0.08203125 25.13671875 C-0.08203125 25.79671875 -0.08203125 26.45671875 -0.08203125 27.13671875 C3.87796875 27.13671875 7.83796875 27.13671875 11.91796875 27.13671875 C11.91796875 28.78671875 11.91796875 30.43671875 11.91796875 32.13671875 C10.91796875 33.13671875 10.91796875 33.13671875 9.15209961 33.25024414 C8.40323486 33.24500732 7.65437012 33.23977051 6.8828125 33.234375 C6.07392578 33.23115234 5.26503906 33.22792969 4.43164062 33.22460938 C3.58150391 33.21623047 2.73136719 33.20785156 1.85546875 33.19921875 C1.00146484 33.19470703 0.14746094 33.19019531 -0.73242188 33.18554688 C-2.84898788 33.17372248 -4.9655181 33.15578644 -7.08203125 33.13671875 C-7.10668517 28.5977417 -7.12486914 24.05880332 -7.13696289 19.51977539 C-7.14200265 17.97452109 -7.14883445 16.42927159 -7.1574707 14.8840332 C-7.16955201 12.66746846 -7.17526298 10.45096657 -7.1796875 8.234375 C-7.18484879 7.53957535 -7.19001007 6.8447757 -7.19532776 6.12892151 C-7.19552402 4.46442545 -7.14392254 2.80006376 -7.08203125 1.13671875 C-5.19650595 -0.74880655 -2.50434294 0.00425186 0 0 Z " fill="#E38629" transform="translate(86.08203125,194.86328125)"/>
<path d="M0 0 C0.66 0 1.32 0 2 0 C1.86105043 4.08359816 1.71265062 8.16679956 1.5625 12.25 C1.50352539 13.98830078 1.50352539 13.98830078 1.44335938 15.76171875 C1.40146484 16.87675781 1.35957031 17.99179688 1.31640625 19.140625 C1.26141968 20.68024902 1.26141968 20.68024902 1.20532227 22.25097656 C1.02717872 24.63610887 0.67222637 26.71299499 0 29 C-2.31 29.66 -4.62 30.32 -7 31 C-6.03736627 8.56067576 -6.03736627 8.56067576 0 0 Z " fill="#BE6B1D" transform="translate(174,147)"/>
<path d="M0 0 C2.81403301 0.28050806 5.62567253 0.57381304 8.4375 0.875 C9.64116211 0.99294922 9.64116211 0.99294922 10.86914062 1.11328125 C12.92170994 1.33845763 14.96293009 1.66222587 17 2 C17.495 2.99 17.495 2.99 18 4 C10.22712838 6.50737794 2.54425868 7.48847254 -5.5625 8.1875 C-6.51906494 8.27112793 -7.47562988 8.35475586 -8.46118164 8.44091797 C-14.98485579 8.95968812 -21.45741584 9.09324916 -28 9 C-28 8.34 -28 7.68 -28 7 C-27.09507813 6.96132812 -27.09507813 6.96132812 -26.171875 6.921875 C-20.89464661 6.59668017 -20.89464661 6.59668017 -16.4375 3.9375 C-15.963125 3.298125 -15.48875 2.65875 -15 2 C-14.34 2.33 -13.68 2.66 -13 3 C-13.33 3.66 -13.66 4.32 -14 5 C-8.555 5.495 -8.555 5.495 -3 6 C-2.67 4.68 -2.34 3.36 -2 2 C-1.34 2.33 -0.68 2.66 0 3 C0 2.01 0 1.02 0 0 Z " fill="#A05C1E" transform="translate(148,175)"/>
<path d="M0 0 C1.64347916 0.00212242 1.64347916 0.00212242 3.32015991 0.00428772 C6.78378145 0.00983854 10.24733584 0.02238166 13.7109375 0.03515625 C16.07421781 0.04017761 18.43749914 0.0447394 20.80078125 0.04882812 C26.56252251 0.05979181 32.3242252 0.07648019 38.0859375 0.09765625 C38.0859375 0.42765625 38.0859375 0.75765625 38.0859375 1.09765625 C37.04775879 1.11747559 36.00958008 1.13729492 34.93994141 1.15771484 C31.04453509 1.23446853 27.14946886 1.32307098 23.25439453 1.41503906 C21.57672904 1.45304339 19.89898996 1.48794297 18.22119141 1.51953125 C9.29452668 1.68966423 0.79561907 1.91580119 -7.9140625 4.09765625 C-7.9140625 4.42765625 -7.9140625 4.75765625 -7.9140625 5.09765625 C-13.1940625 4.76765625 -18.4740625 4.43765625 -23.9140625 4.09765625 C-21.9140625 1.09765625 -21.9140625 1.09765625 -19.95010376 0.58937073 C-13.29216908 0.11239854 -6.67449144 -0.033058 0 0 Z " fill="#9D632F" transform="translate(95.9140625,10.90234375)"/>
<path d="M0 0 C1.14423126 3.43269377 0.9217885 3.81999968 -0.51171875 6.94921875 C-0.85783203 7.71556641 -1.20394531 8.48191406 -1.56054688 9.27148438 C-1.93244141 10.06876953 -2.30433594 10.86605469 -2.6875 11.6875 C-3.04005859 12.46544922 -3.39261719 13.24339844 -3.75585938 14.04492188 C-4.81787817 16.37282048 -5.90698975 18.68651905 -7 21 C-7.34885254 21.76908691 -7.69770508 22.53817383 -8.05712891 23.33056641 C-8.96000183 25.25890339 -9.97235311 27.13516624 -11 29 C-11.99 29.33 -12.98 29.66 -14 30 C-14 22.08 -14 14.16 -14 6 C-13.34 5.67 -12.68 5.34 -12 5 C-12 9.95 -12 14.9 -12 20 C-11.01 19.67 -10.02 19.34 -9 19 C-8.67 18.01 -8.34 17.02 -8 16 C-7.34 16 -6.68 16 -6 16 C-6.020625 14.88625 -6.04125 13.7725 -6.0625 12.625 C-6 9 -6 9 -5 7 C-4.01 7 -3.02 7 -2 7 C-2.33 5.68 -2.66 4.36 -3 3 C-2.01 2.67 -1.02 2.34 0 2 C0 1.34 0 0.68 0 0 Z " fill="#D17A30" transform="translate(78,152)"/>
<path d="M0 0 C1.2065625 0.0309375 1.2065625 0.0309375 2.4375 0.0625 C2.1075 1.3825 1.7775 2.7025 1.4375 4.0625 C0.4475 3.7325 -0.5425 3.4025 -1.5625 3.0625 C-1.2325 12.3025 -0.9025 21.5425 -0.5625 31.0625 C6.3675 31.5575 6.3675 31.5575 13.4375 32.0625 C13.4375 30.7425 13.4375 29.4225 13.4375 28.0625 C10.1375 28.0625 6.8375 28.0625 3.4375 28.0625 C3.4375 27.7325 3.4375 27.4025 3.4375 27.0625 C7.3975 27.0625 11.3575 27.0625 15.4375 27.0625 C15.4375 28.7125 15.4375 30.3625 15.4375 32.0625 C13.5519747 33.9480253 10.85981169 33.19496689 8.35546875 33.19921875 C7.55753906 33.19535156 6.75960937 33.19148438 5.9375 33.1875 C5.13957031 33.19136719 4.34164062 33.19523437 3.51953125 33.19921875 C-2.43589233 33.18910767 -2.43589233 33.18910767 -3.5625 32.0625 C-3.6627093 29.78302208 -3.69331303 27.50042865 -3.6953125 25.21875 C-3.69626923 24.53445923 -3.69722595 23.85016846 -3.69821167 23.1451416 C-3.6988933 21.69588123 -3.69704023 20.24661782 -3.69287109 18.79736328 C-3.68752252 16.57187072 -3.6928166 14.34657999 -3.69921875 12.12109375 C-3.69855797 10.71614539 -3.6972768 9.31119715 -3.6953125 7.90625 C-3.69418457 6.61912109 -3.69305664 5.33199219 -3.69189453 4.00585938 C-3.51956468 0.08584304 -3.51956468 0.08584304 0 0 Z " fill="#D58939" transform="translate(164.5625,194.9375)"/>
<path d="M0 0 C1.32 0.66 2.64 1.32 4 2 C-0.75 6 -0.75 6 -3 6 C-3.27714844 6.57621094 -3.55429688 7.15242188 -3.83984375 7.74609375 C-5.33747789 10.65563886 -7.1030142 13.35213768 -8.87890625 16.09765625 C-11.09827151 19.8636175 -11.2655828 23.40340892 -11.5625 27.6875 C-11.64628906 28.86699219 -11.73007813 30.04648438 -11.81640625 31.26171875 C-11.87699219 32.16535156 -11.93757813 33.06898438 -12 34 C-12.66 34 -13.32 34 -14 34 C-15.29834273 27.36402606 -15.76024046 20.30045086 -12.5 14.1875 C-12.005 13.465625 -11.51 12.74375 -11 12 C-10.29329272 9.30745009 -10.29329272 9.30745009 -10 7 C-9.34 7 -8.68 7 -8 7 C-7.67 6.34 -7.34 5.68 -7 5 C-5.66666667 4.33333333 -4.33333333 3.66666667 -3 3 C-1.29078411 1.4587688 -1.29078411 1.4587688 0 0 Z " fill="#DD8E3D" transform="translate(107,99)"/>
<path d="M0 0 C0.66 0.33 1.32 0.66 2 1 C2.6875 4 2.6875 4 3 7 C2.67 7.33 2.34 7.66 2 8 C1.76321284 10.69235776 1.57801975 13.36498156 1.4375 16.0625 C1.39431641 16.82111328 1.35113281 17.57972656 1.30664062 18.36132812 C1.20026367 20.24065438 1.09960066 22.12030244 1 24 C0.01 24 -0.98 24 -2 24 C-1.67 22.02 -1.34 20.04 -1 18 C-2.98 18.99 -2.98 18.99 -5 20 C-5 16.37 -5 12.74 -5 9 C-3.68 8.67 -2.36 8.34 -1 8 C-1.309375 6.576875 -1.309375 6.576875 -1.625 5.125 C-1.74875 4.09375 -1.8725 3.0625 -2 2 C-1.34 1.34 -0.68 0.68 0 0 Z " fill="#EE8C24" transform="translate(135,198)"/>
<path d="M0 0 C1.2065625 0.0309375 1.2065625 0.0309375 2.4375 0.0625 C2.1075 0.7225 1.7775 1.3825 1.4375 2.0625 C0.4475 2.0625 -0.5425 2.0625 -1.5625 2.0625 C-1.2325 5.0325 -0.9025 8.0025 -0.5625 11.0625 C0.0975 11.0625 0.7575 11.0625 1.4375 11.0625 C1.4375 11.7225 1.4375 12.3825 1.4375 13.0625 C0.4475 13.0625 -0.5425 13.0625 -1.5625 13.0625 C-1.5625 19.0025 -1.5625 24.9425 -1.5625 31.0625 C3.7175 31.3925 8.9975 31.7225 14.4375 32.0625 C14.4375 32.3925 14.4375 32.7225 14.4375 33.0625 C11.62493719 33.08934312 8.81262759 33.10926188 6 33.125 C5.19755859 33.13337891 4.39511719 33.14175781 3.56835938 33.15039062 C1.52454779 33.1590143 -0.51933902 33.1147815 -2.5625 33.0625 C-4.47099948 31.15400052 -3.69309633 27.74771226 -3.6953125 25.21875 C-3.69626923 24.53445923 -3.69722595 23.85016846 -3.69821167 23.1451416 C-3.6988933 21.69588123 -3.69704023 20.24661782 -3.69287109 18.79736328 C-3.68752252 16.57187072 -3.6928166 14.34657999 -3.69921875 12.12109375 C-3.69855797 10.71614539 -3.6972768 9.31119715 -3.6953125 7.90625 C-3.69418457 6.61912109 -3.69305664 5.33199219 -3.69189453 4.00585938 C-3.51956468 0.08584304 -3.51956468 0.08584304 0 0 Z " fill="#DA8330" transform="translate(188.5625,194.9375)"/>
<path d="M0 0 C0.66 0 1.32 0 2 0 C1.67 2.31 1.34 4.62 1 7 C1.928125 6.814375 2.85625 6.62875 3.8125 6.4375 C7 6 7 6 10 7 C10.33 5.68 10.66 4.36 11 3 C11.99 3.33 12.98 3.66 14 4 C14.99 3.67 15.98 3.34 17 3 C17 4.98 17 6.96 17 9 C9.74 9 2.48 9 -5 9 C-3.35 6.03 -1.7 3.06 0 0 Z " fill="#945821" transform="translate(70,174)"/>
<path d="M0 0 C0.66 0.33 1.32 0.66 2 1 C1 3.375 1 3.375 -1 6 C-2.98192543 6.69925075 -4.93549803 7.07442134 -6.99609375 7.48046875 C-10.03376612 8.26801344 -11.84133822 9.77592423 -14 12 C-14.6425235 14.06874034 -14.6425235 14.06874034 -15 16 C-15.99 16.66 -16.98 17.32 -18 18 C-18.309375 18.804375 -18.61875 19.60875 -18.9375 20.4375 C-20.14825244 23.35755 -21.36982863 24.3342248 -24 26 C-21.11628233 15.07222779 -16.25207883 9.26665812 -6.5859375 3.4453125 C-5.73257813 2.96835938 -4.87921875 2.49140625 -4 2 C-3.27039063 1.58492188 -2.54078125 1.16984375 -1.7890625 0.7421875 C-1.19867188 0.49726562 -0.60828125 0.25234375 0 0 Z " fill="#AE6C26" transform="translate(119,96)"/>
<path d="M0 0 C0.79792969 0.00386719 1.59585938 0.00773438 2.41796875 0.01171875 C3.21589844 0.00785156 4.01382813 0.00398437 4.8359375 0 C10.79136108 0.01011108 10.79136108 0.01011108 11.91796875 1.13671875 C11.91796875 2.78671875 11.91796875 4.43671875 11.91796875 6.13671875 C7.95796875 6.13671875 3.99796875 6.13671875 -0.08203125 6.13671875 C-0.08203125 5.80671875 -0.08203125 5.47671875 -0.08203125 5.13671875 C3.54796875 5.13671875 7.17796875 5.13671875 10.91796875 5.13671875 C10.91796875 4.14671875 10.91796875 3.15671875 10.91796875 2.13671875 C2.99796875 2.63171875 2.99796875 2.63171875 -5.08203125 3.13671875 C-5.08203125 13.03671875 -5.08203125 22.93671875 -5.08203125 33.13671875 C-5.74203125 33.13671875 -6.40203125 33.13671875 -7.08203125 33.13671875 C-7.10668517 28.5977417 -7.12486914 24.05880332 -7.13696289 19.51977539 C-7.14200265 17.97452109 -7.14883445 16.42927159 -7.1574707 14.8840332 C-7.16955201 12.66746846 -7.17526298 10.45096657 -7.1796875 8.234375 C-7.18484879 7.53957535 -7.19001007 6.8447757 -7.19532776 6.12892151 C-7.19552402 4.46442545 -7.14392254 2.80006376 -7.08203125 1.13671875 C-5.19650595 -0.74880655 -2.50434294 0.00425186 0 0 Z " fill="#CF8D44" transform="translate(86.08203125,194.86328125)"/>
<path d="M0 0 C1.02802734 0.00322266 2.05605469 0.00644531 3.11523438 0.00976562 C4.72301758 0.02233398 4.72301758 0.02233398 6.36328125 0.03515625 C7.44673828 0.03966797 8.53019531 0.04417969 9.64648438 0.04882812 C12.3229721 0.06061882 14.99934902 0.07707562 17.67578125 0.09765625 C18.00578125 0.75765625 18.33578125 1.41765625 18.67578125 2.09765625 C18.02609375 2.62359375 18.02609375 2.62359375 17.36328125 3.16015625 C14.99219669 5.8825126 14.00409775 8.74523841 12.67578125 12.09765625 C12.01578125 11.76765625 11.35578125 11.43765625 10.67578125 11.09765625 C11.00578125 8.45765625 11.33578125 5.81765625 11.67578125 3.09765625 C9.76152344 3.13246094 9.76152344 3.13246094 7.80859375 3.16796875 C6.13932875 3.18672454 4.47005745 3.20492494 2.80078125 3.22265625 C1.53814453 3.24779297 1.53814453 3.24779297 0.25 3.2734375 C-0.55566406 3.27988281 -1.36132812 3.28632813 -2.19140625 3.29296875 C-2.93503418 3.30344238 -3.67866211 3.31391602 -4.44482422 3.32470703 C-6.32421875 3.09765625 -6.32421875 3.09765625 -8.32421875 1.09765625 C-5.26502487 0.07792496 -3.2000385 -0.01767977 0 0 Z " fill="#D49A4E" transform="translate(157.32421875,144.90234375)"/>
<path d="M0 0 C0.66 0.33 1.32 0.66 2 1 C1.67 1.66 1.34 2.32 1 3 C2.12019531 3 3.24039063 3 4.39453125 3 C9.59635417 3 14.79817708 3 20 3 C20.495 3.99 20.495 3.99 21 5 C17.3965669 5.34158347 13.79216548 5.67169816 10.1875 6 C9.18267578 6.09539062 8.17785156 6.19078125 7.14257812 6.2890625 C0.40797288 6.89539352 -6.23933254 7.12017481 -13 7 C-13 6.34 -13 5.68 -13 5 C-12.09507813 4.96132812 -12.09507813 4.96132812 -11.171875 4.921875 C-5.89464661 4.59668017 -5.89464661 4.59668017 -1.4375 1.9375 C-0.963125 1.298125 -0.48875 0.65875 0 0 Z " fill="#92561F" transform="translate(133,177)"/>
<path d="M0 0 C0.721875 0.78375 1.44375 1.5675 2.1875 2.375 C7.34963078 7.19298873 14.02974927 8.1380449 20.72265625 9.90234375 C23.74943139 10.91607893 25.62259766 11.91903187 28 14 C16.69871512 13.24658101 6.90422769 9.34652999 -3 4 C-2.34 3.67 -1.68 3.34 -1 3 C-0.67 2.01 -0.34 1.02 0 0 Z " fill="#E8A151" transform="translate(124,161)"/>
<path d="M0 0 C6.87762742 -0.11723229 13.75245747 -0.02935267 20.625 0.25 C21.67300781 0.27114868 21.67300781 0.27114868 22.7421875 0.29272461 C24.7265625 0.390625 24.7265625 0.390625 28 1 C29.4609375 3.046875 29.4609375 3.046875 30 5 C29.34 5 28.68 5 28 5 C28 4.34 28 3.68 28 3 C26.92878906 3.22816406 25.85757813 3.45632812 24.75390625 3.69140625 C23.35683354 3.98207238 21.95969466 4.2724206 20.5625 4.5625 C19.50192383 4.78969727 19.50192383 4.78969727 18.41992188 5.02148438 C16.62173751 5.39144575 14.81126406 5.7005656 13 6 C12 5 12 5 11 1 C7.37 1 3.74 1 0 1 C0 0.67 0 0.34 0 0 Z " fill="#C17328" transform="translate(134,82)"/>
<path d="M0 0 C2 3 2 3 2 5 C2.66 5 3.32 5 4 5 C5.61949011 7.57213134 6.04408751 8.67669159 5.625 11.75 C5.41875 12.4925 5.2125 13.235 5 14 C6.32 14.66 7.64 15.32 9 16 C8.34 18.64 7.68 21.28 7 24 C6.01 24 5.02 24 4 24 C3.32698711 20.75128084 2.6627049 17.50083621 2 14.25 C1.80921875 13.32960938 1.6184375 12.40921875 1.421875 11.4609375 C1.24140625 10.57148437 1.0609375 9.68203125 0.875 8.765625 C0.70742187 7.94868164 0.53984375 7.13173828 0.3671875 6.29003906 C0 4 0 4 0 0 Z " fill="#D08134" transform="translate(86,51)"/>
<path d="M0 0 C3.88019859 1.25844278 5.9411842 2.42416203 8 6 C8 6.99 8 7.98 8 9 C4.5980513 11.09350689 1.94727588 11.17942163 -2 11 C-1.62875 10.443125 -1.2575 9.88625 -0.875 9.3125 C0.29515863 6.94283647 0.29515863 6.94283647 -0.875 4.25 C-1.24625 3.5075 -1.6175 2.765 -2 2 C-1.34 1.34 -0.68 0.68 0 0 Z " fill="#9E5F23" transform="translate(169,44)"/>
<path d="M0 0 C3 1 3 1 4.875 3.125 C5.57625 3.74375 6.2775 4.3625 7 5 C9.61098043 4.76129575 9.61098043 4.76129575 12 4 C12.66 4.33 13.32 4.66 14 5 C14.144375 5.7425 14.28875 6.485 14.4375 7.25 C15.06913523 10.33799444 16.28038487 12.38319437 18 15 C14.29649348 13.68058498 11.50861956 12.07121349 8.4375 9.625 C7.69371094 9.03976563 6.94992188 8.45453125 6.18359375 7.8515625 C3.99040517 5.99186413 1.93299021 4.1302341 0 2 C0 1.34 0 0.68 0 0 Z " fill="#DD9948" transform="translate(103,149)"/>
<path d="M0 0 C0.99 0.33 1.98 0.66 3 1 C2.34 1 1.68 1 1 1 C1.495 1.78375 1.99 2.5675 2.5 3.375 C4 6 4 6 4 8 C3.01 8 2.02 8 1 8 C1.33 8.99 1.66 9.98 2 11 C1.7072892 13.0063478 1.36756726 15.00600767 1 17 C0.78877252 19.28960156 0.60132008 21.58151895 0.4375 23.875 C0.35371094 25.02742188 0.26992187 26.17984375 0.18359375 27.3671875 C0.12300781 28.23601563 0.06242187 29.10484375 0 30 C-0.33 30 -0.66 30 -1 30 C-1.02465746 25.8882744 -1.04283959 21.77657722 -1.05493164 17.66479492 C-1.0599708 16.26504772 -1.06680216 14.8653058 -1.07543945 13.46557617 C-1.0875232 11.45754223 -1.09269807 9.44947043 -1.09765625 7.44140625 C-1.10289307 6.23170166 -1.10812988 5.02199707 -1.11352539 3.77563477 C-1 1 -1 1 0 0 Z " fill="#92601D" transform="translate(64,13)"/>
<path d="M0 0 C0.33 0 0.66 0 1 0 C1.04898438 0.88042969 1.09796875 1.76085937 1.1484375 2.66796875 C1.22320312 3.82941406 1.29796875 4.99085938 1.375 6.1875 C1.47941406 7.91033203 1.47941406 7.91033203 1.5859375 9.66796875 C1.97509574 12.79959117 2.6809851 15.15285809 4 18 C3.01 17.67 2.02 17.34 1 17 C1.66 18.65 2.32 20.3 3 22 C-0.05397571 21.67278832 -1.03116777 20.96883223 -3.25 18.75 C-5.13357065 15.79010327 -5.39141851 14.42491198 -5 11 C-4.01 10.67 -3.02 10.34 -2 10 C-2.33 11.98 -2.66 13.96 -3 16 C-2.01 16 -1.02 16 0 16 C0 10.72 0 5.44 0 0 Z " fill="#DD8C39" transform="translate(136,206)"/>
<path d="M0 0 C1.72274487 2.58411731 2.68895522 4.54902656 3.6875 7.4375 C3.95949219 8.19933594 4.23148437 8.96117187 4.51171875 9.74609375 C5.04729142 12.21829721 4.80445309 13.62983284 4 16 C2.02 16 0.04 16 -2 16 C-2.33 14.02 -2.66 12.04 -3 10 C-2.01 9.34 -1.02 8.68 0 8 C0.36297936 6.02252878 0.36297936 6.02252878 0.1875 3.875 C0.125625 2.59625 0.06375 1.3175 0 0 Z " fill="#DB8735" transform="translate(123,212)"/>
<path d="M0 0 C0.73605469 0.20496094 1.47210938 0.40992188 2.23046875 0.62109375 C3.69419922 1.02521484 3.69419922 1.02521484 5.1875 1.4375 C6.15042969 1.70433594 7.11335937 1.97117188 8.10546875 2.24609375 C10.94875952 3.03349839 10.94875952 3.03349839 13.6953125 3.4453125 C17.12034037 4.26964124 18.68687033 6.43680226 21 9 C21.66 9.66 22.32 10.32 23 11 C22.67 11.99 22.34 12.98 22 14 C21.41734375 13.56429687 20.8346875 13.12859375 20.234375 12.6796875 C13.80798786 8.01146288 7.18493978 4.37025526 0 1 C0 0.67 0 0.34 0 0 Z " fill="#D6863A" transform="translate(151,32)"/>
<path d="M0 0 C-2.64738916 1.4606285 -3.89448334 2 -7 2 C-7 2.99 -7 3.98 -7 5 C-6.34 4.67 -5.68 4.34 -5 4 C-3.00039988 3.960008 -0.99952758 3.95653201 1 4 C1 4.33 1 4.66 1 5 C-0.11375 5.28875 -1.2275 5.5775 -2.375 5.875 C-6.00291092 6.69241329 -6.00291092 6.69241329 -8 9 C-8.33 7.35 -8.66 5.7 -9 4 C-9.99 4.495 -9.99 4.495 -11 5 C-11 6.98 -11 8.96 -11 11 C-12.32 11.33 -13.64 11.66 -15 12 C-13.65694219 4.67423015 -13.65694219 4.67423015 -10.625 1.5625 C-6.67054037 -0.79134502 -4.418973 -1.42038418 0 0 Z " fill="#D98A35" transform="translate(145,195)"/>
<path d="M0 0 C0.33 0.66 0.66 1.32 1 2 C3.31 2 5.62 2 8 2 C5.30442091 4.75942175 4.05259984 4.99899659 0.109375 5.07421875 C-1.34512042 4.96182592 -2.79838312 4.83240522 -4.25 4.6875 C-4.99507813 4.62626953 -5.74015625 4.56503906 -6.5078125 4.50195312 C-8.33982155 4.3492857 -10.17014316 4.17660246 -12 4 C-10 1 -10 1 -7.6171875 0.48828125 C-6.71226563 0.43027344 -5.80734375 0.37226563 -4.875 0.3125 C-3.96492188 0.24675781 -3.05484375 0.18101563 -2.1171875 0.11328125 C-1.06917969 0.05720703 -1.06917969 0.05720703 0 0 Z " fill="#94511A" transform="translate(84,11)"/>
<path d="M0 0 C1.47906892 -0.02689216 2.95827483 -0.04634621 4.4375 -0.0625 C5.26121094 -0.07410156 6.08492188 -0.08570313 6.93359375 -0.09765625 C9 0 9 0 10 1 C10 2.65 10 4.3 10 6 C6.37 6 2.74 6 -1 6 C0.32 5.01 1.64 4.02 3 3 C3 2.34 3 1.68 3 1 C2.01 0.67 1.02 0.34 0 0 Z " fill="#DC8935" transform="translate(87,208)"/>
<path d="M0 0 C1.17189558 3.51568674 0.83725505 3.9991852 -0.65234375 7.23046875 C-1.01650391 8.03291016 -1.38066406 8.83535156 -1.75585938 9.66210938 C-2.34077148 10.91217773 -2.34077148 10.91217773 -2.9375 12.1875 C-3.32357422 13.03248047 -3.70964844 13.87746094 -4.10742188 14.74804688 C-5.06300701 16.83617735 -6.02743783 18.91973604 -7 21 C-7.33 21 -7.66 21 -8 21 C-8 19.35 -8 17.7 -8 16 C-7.34 16 -6.68 16 -6 16 C-6.020625 14.88625 -6.04125 13.7725 -6.0625 12.625 C-6 9 -6 9 -5 7 C-4.01 7 -3.02 7 -2 7 C-2.33 5.68 -2.66 4.36 -3 3 C-2.01 2.67 -1.02 2.34 0 2 C0 1.34 0 0.68 0 0 Z " fill="#DB8635" transform="translate(78,152)"/>
<path d="M0 0 C1.2065625 0.0309375 1.2065625 0.0309375 2.4375 0.0625 C2.1075 0.7225 1.7775 1.3825 1.4375 2.0625 C0.4475 2.0625 -0.5425 2.0625 -1.5625 2.0625 C-1.8925 11.9625 -2.2225 21.8625 -2.5625 32.0625 C-2.8925 32.0625 -3.2225 32.0625 -3.5625 32.0625 C-3.58715504 27.66593827 -3.60533842 23.2694128 -3.61743164 18.87280273 C-3.62247121 17.37605082 -3.62930287 15.87930384 -3.63793945 14.38256836 C-3.65002159 12.23550193 -3.65573191 10.08850038 -3.66015625 7.94140625 C-3.66539307 6.6479126 -3.67062988 5.35441895 -3.67602539 4.02172852 C-3.52503746 0.08597652 -3.52503746 0.08597652 0 0 Z " fill="#CE8B43" transform="translate(188.5625,194.9375)"/>
<path d="M0 0 C0.66 0 1.32 0 2 0 C2.52849741 5.28497409 2.52849741 5.28497409 2 8 C-1 10.5 -1 10.5 -4 12 C-3.53680089 7.27536912 -2.90108294 3.82942948 0 0 Z " fill="#CD7720" transform="translate(174,147)"/>
<path d="M0 0 C1.47906892 -0.02689216 2.95827483 -0.04634621 4.4375 -0.0625 C5.26121094 -0.07410156 6.08492187 -0.08570313 6.93359375 -0.09765625 C9 0 9 0 10 1 C10 2.65 10 4.3 10 6 C6.04 6 2.08 6 -2 6 C-2 5.67 -2 5.34 -2 5 C0.64 4.67 3.28 4.34 6 4 C6 3.34 6 2.68 6 2 C4.35 2 2.7 2 1 2 C0.67 1.34 0.34 0.68 0 0 Z " fill="#D38F3D" transform="translate(194,195)"/>
<path d="M0 0 C0.66 0 1.32 0 2 0 C3 3 3 3 2.875 6.75 C2.79330807 11.16136448 4.04094736 14.08189471 6 18 C3.60136886 17.33830865 2.30831647 16.51966244 1.03125 14.3671875 C-1.16225462 9.18807937 -1.07608685 5.47826031 0 0 Z " fill="#AF7436" transform="translate(105,122)"/>
<path d="M0 0 C3.3 0 6.6 0 10 0 C5.25 7.625 5.25 7.625 3 11 C2.15545644 7.62182575 1.89155081 5.32534757 3 2 C2.01 2 1.02 2 0 2 C0 1.34 0 0.68 0 0 Z " fill="#E89D45" transform="translate(166,146)"/>
<path d="M0 0 C1.03159626 3.09478879 0.97482862 4.52631393 0.5625 7.6875 C0.46066406 8.49574219 0.35882813 9.30398437 0.25390625 10.13671875 C0.17011719 10.75160156 0.08632812 11.36648437 0 12 C-0.66 11.34 -1.32 10.68 -2 10 C-2.99 10.495 -2.99 10.495 -4 11 C-4 8.03 -4 5.06 -4 2 C-3.01 2 -2.02 2 -1 2 C-0.67 1.34 -0.34 0.68 0 0 Z " fill="#EF8220" transform="translate(167,196)"/>
<path d="M0 0 C3.875 1.875 3.875 1.875 5 3 C5.14115161 5.67058851 5.04247107 8.32432238 5 11 C3 9.66666667 1 8.33333333 -1 7 C-0.67 4.69 -0.34 2.38 0 0 Z " fill="#EE871D" transform="translate(148,217)"/>
<path d="M0 0 C0.33 1.32 0.66 2.64 1 4 C1.66 4 2.32 4 3 4 C3.66 3.34 4.32 2.68 5 2 C6 5 6 5 5.0625 7.1875 C4.5365625 8.0846875 4.5365625 8.0846875 4 9 C4 8.01 4 7.02 4 6 C2.68 6 1.36 6 0 6 C0.33 7.65 0.66 9.3 1 11 C0.01 11 -0.98 11 -2 11 C-2.33 11.66 -2.66 12.32 -3 13 C-2.68817931 11.58318366 -2.37551263 10.16655349 -2.0625 8.75 C-1.88847656 7.96109375 -1.71445313 7.1721875 -1.53515625 6.359375 C-1.052444 4.23121297 -0.53836822 2.11467158 0 0 Z " fill="#DE8934" transform="translate(107,203)"/>
<path d="M0 0 C-1.32 2.31 -2.64 4.62 -4 7 C-6.5 5.625 -6.5 5.625 -9 4 C-9 3.34 -9 2.68 -9 2 C-5.86501708 0.14223235 -3.62528568 -0.20140476 0 0 Z " fill="#A8602A" transform="translate(74,12)"/>
<path d="M0 0 C5.28 0 10.56 0 16 0 C16.66 1.32 17.32 2.64 18 4 C17.34 4 16.68 4 16 4 C16 3.34 16 2.68 16 2 C15.29488281 2.18433594 14.58976563 2.36867188 13.86328125 2.55859375 C10.66768679 3.05122973 8.34428787 2.70907101 5.1875 2.0625 C4.21167969 1.86785156 3.23585937 1.67320313 2.23046875 1.47265625 C1.49441406 1.31667969 0.75835937 1.16070312 0 1 C0 0.67 0 0.34 0 0 Z " fill="#B6793B" transform="translate(146,83)"/>
<path d="M0 0 C-10.18906606 6.70387244 -10.18906606 6.70387244 -17 7 C-16.67 6.34 -16.34 5.68 -16 5 C-13.93359375 4.3671875 -13.93359375 4.3671875 -11.4375 3.875 C-10.61121094 3.70742187 -9.78492188 3.53984375 -8.93359375 3.3671875 C-7.97646484 3.18542969 -7.97646484 3.18542969 -7 3 C-7 2.34 -7 1.68 -7 1 C-3.375 -1.125 -3.375 -1.125 0 0 Z " fill="#BC8447" transform="translate(159,108)"/>
<path d="M0 0 C0.33 0 0.66 0 1 0 C1 4.95 1 9.9 1 15 C0.34 14.67 -0.32 14.34 -1 14 C-1.484375 11.34765625 -1.484375 11.34765625 -1.75 8.0625 C-1.84796875 6.98097656 -1.9459375 5.89945313 -2.046875 4.78515625 C-2 2 -2 2 0 0 Z " fill="#B77438" transform="translate(174,155)"/>
<path d="M0 0 C2 3 2 3 2 5 C2.66 5 3.32 5 4 5 C5.125 6.5625 5.125 6.5625 6 9 C5.125 12.75 5.125 12.75 4 16 C1.11388804 11.0523795 0 5.66834163 0 0 Z " fill="#D58A41" transform="translate(86,51)"/>
<path d="M0 0 C7.51589825 0.61605723 7.51589825 0.61605723 9.8125 2.4375 C10.204375 2.953125 10.59625 3.46875 11 4 C11.99 4.66 12.98 5.32 14 6 C12.35 6.33 10.7 6.66 9 7 C8.67 6.01 8.34 5.02 8 4 C6.01751285 3.28293018 4.01584651 2.61709587 2 2 C1.34 1.34 0.68 0.68 0 0 Z " fill="#CF7B30" transform="translate(152,14)"/>
<path d="M0 0 C4.455 0.99 4.455 0.99 9 2 C9 2.66 9 3.32 9 4 C6.03 4 3.06 4 0 4 C0 2.68 0 1.36 0 0 Z " fill="#F0851D" transform="translate(191,195)"/>
<path d="M0 0 C4.455 0.99 4.455 0.99 9 2 C9 2.66 9 3.32 9 4 C6.69 4.66 4.38 5.32 2 6 C1.34 4.02 0.68 2.04 0 0 Z " fill="#ED8C1F" transform="translate(137,223)"/>
<path d="M0 0 C4.29 0.99 8.58 1.98 13 3 C13 3.33 13 3.66 13 4 C4.57142857 5.42857143 4.57142857 5.42857143 0 3 C0 2.01 0 1.02 0 0 Z " fill="#C07833" transform="translate(110,77)"/>
<path d="M0 0 C0.99 0.33 1.98 0.66 3 1 C3 1.66 3 2.32 3 3 C4.32 3.33 5.64 3.66 7 4 C4.03 4.66 1.06 5.32 -2 6 C-1 2 -1 2 0 0 Z " fill="#EE801E" transform="translate(189,220)"/>
<path d="M0 0 C1.32 0 2.64 0 4 0 C4 1.65 4 3.3 4 5 C2.35 4.67 0.7 4.34 -1 4 C-0.67 2.68 -0.34 1.36 0 0 Z " fill="#F09B1A" transform="translate(197,208)"/>
<path d="M0 0 C0.33 0.66 0.66 1.32 1 2 C1.66 2 2.32 2 3 2 C3 1.34 3 0.68 3 0 C4.98 0 6.96 0 9 0 C4.69230769 3.93846154 4.69230769 3.93846154 1.1875 4.25 C0.465625 4.1675 -0.25625 4.085 -1 4 C-0.67 2.68 -0.34 1.36 0 0 Z " fill="#D67F2A" transform="translate(107,96)"/>
<path d="M0 0 C0.99 0.33 1.98 0.66 3 1 C3.6875 3.0625 3.6875 3.0625 4 5 C3.01 5.66 2.02 6.32 1 7 C0.01 5.35 -0.98 3.7 -2 2 C-1.34 1.34 -0.68 0.68 0 0 Z " fill="#9E5815" transform="translate(169,44)"/>
<path d="M0 0 C0 0.99 0 1.98 0 3 C-4.22222222 6 -4.22222222 6 -7 6 C-7 5.01 -7 4.02 -7 3 C-4.69 2.01 -2.38 1.02 0 0 Z " fill="#F08625" transform="translate(145,194)"/>
<path d="M0 0 C0.66 0 1.32 0 2 0 C1.67 2.31 1.34 4.62 1 7 C-0.32 7 -1.64 7 -3 7 C-1.125 1.125 -1.125 1.125 0 0 Z " fill="#A05611" transform="translate(70,174)"/>
<path d="M0 0 C0.66 0.99 1.32 1.98 2 3 C1.125 6.6875 1.125 6.6875 0 10 C0.66 10.33 1.32 10.66 2 11 C0.35 10.67 -1.3 10.34 -3 10 C-2.01 6.7 -1.02 3.4 0 0 Z " fill="#DA893A" transform="translate(103,217)"/>
<path d="M0 0 C2.475 0.99 2.475 0.99 5 2 C2.38485683 4.12038635 -0.19637616 6.13091744 -3 8 C-1.125 2.25 -1.125 2.25 0 0 Z " fill="#A75D17" transform="translate(74,165)"/>
<path d="M0 0 C1.65 0 3.3 0 5 0 C5 1.98 5 3.96 5 6 C3.0625 5.25 3.0625 5.25 1 4 C0.25 1.875 0.25 1.875 0 0 Z " fill="#F18B1D" transform="translate(81,197)"/>
<path d="M0 0 C0.33 0.66 0.66 1.32 1 2 C0.22265625 3.7265625 0.22265625 3.7265625 -0.9375 5.625 C-1.618125 6.73875 -2.29875 7.8525 -3 9 C-3.93423645 5.98968256 -4.04449911 5.13349732 -3 2 C-2.01 1.34 -1.02 0.68 0 0 Z " fill="#D58738" transform="translate(69,173)"/>
<path d="M0 0 C0.33 1.32 0.66 2.64 1 4 C-1.31 4.66 -3.62 5.32 -6 6 C-4.95125002 3.37812506 -4.35068687 2.20628639 -1.875 0.75 C-1.25625 0.5025 -0.6375 0.255 0 0 Z " fill="#AB6229" transform="translate(173,172)"/>
<path d="M0 0 C-0.639375 0.598125 -1.27875 1.19625 -1.9375 1.8125 C-4.20310389 3.90810337 -4.20310389 3.90810337 -5 7 C-7 4 -7 4 -7 1 C-3.375 -1.125 -3.375 -1.125 0 0 Z " fill="#CC7B2C" transform="translate(71,138)"/>
<path d="M0 0 C0.33 0 0.66 0 1 0 C1.33 4.29 1.66 8.58 2 13 C1.01 12.34 0.02 11.68 -1 11 C-0.67 7.37 -0.34 3.74 0 0 Z " fill="#C27A3C" transform="translate(175,37)"/>
<path d="M0 0 C2.9375 0.8125 2.9375 0.8125 6 2 C6.33 2.99 6.66 3.98 7 5 C2.545 4.01 2.545 4.01 -2 3 C-1.34 2.01 -0.68 1.02 0 0 Z " fill="#D48940" transform="translate(137,25)"/>
<path d="M0 0 C-0.66 0 -1.32 0 -2 0 C-2 0.99 -2 1.98 -2 3 C-3.65 3 -5.3 3 -7 3 C-7 2.01 -7 1.02 -7 0 C-3.86650268 -1.04449911 -3.01031744 -0.93423645 0 0 Z " fill="#E78725" transform="translate(150,211)"/>
<path d="M0 0 C4 0 4 0 6.75 2.5 C7.86375 3.7375 7.86375 3.7375 9 5 C8.01 5.495 8.01 5.495 7 6 C5.83054208 5.19152271 4.66449539 4.37810888 3.5 3.5625 C2.8503125 3.11003906 2.200625 2.65757812 1.53125 2.19140625 C1.0259375 1.79824219 0.520625 1.40507812 0 1 C0 0.67 0 0.34 0 0 Z " fill="#E7A454" transform="translate(112,158)"/>
<path d="M0 0 C0.99 0.33 1.98 0.66 3 1 C4.6875 4.5625 4.6875 4.5625 6 8 C4.125 7.375 4.125 7.375 2 6 C0.75 2.875 0.75 2.875 0 0 Z " fill="#B67B3D" transform="translate(105,132)"/>
<path d="M0 0 C0.66 0.33 1.32 0.66 2 1 C1.67 2.65 1.34 4.3 1 6 C-0.32 5.67 -1.64 5.34 -3 5 C-2 2 -2 2 0 0 Z " fill="#EE941B" transform="translate(84,216)"/>
<path d="M0 0 C1.32 0.33 2.64 0.66 4 1 C3.625 3.4375 3.625 3.4375 3 6 C2.01 6.495 2.01 6.495 1 7 C0.67 4.69 0.34 2.38 0 0 Z " fill="#9D5719" transform="translate(151,33)"/>
<path d="M0 0 C0.99 0.33 1.98 0.66 3 1 C3 1.99 3 2.98 3 4 C1.35 4.66 -0.3 5.32 -2 6 C-1.49396008 3.83125748 -1.00016187 2.00032373 0 0 Z " fill="#E98F24" transform="translate(123,222)"/>
<path d="M0 0 C1.32 0 2.64 0 4 0 C4 1.65 4 3.3 4 5 C2.68 4.67 1.36 4.34 0 4 C0 2.68 0 1.36 0 0 Z " fill="#DB862C" transform="translate(188,216)"/>
<path d="M0 0 C1.39195915 4.17587745 -0.17676781 6.13474776 -2 10 C-2.66 9.01 -3.32 8.02 -4 7 C-3.34 7 -2.68 7 -2 7 C-2.33 5.68 -2.66 4.36 -3 3 C-2.01 2.67 -1.02 2.34 0 2 C0 1.34 0 0.68 0 0 Z " fill="#E28F3F" transform="translate(78,152)"/>
<path d="M0 0 C0.66 0 1.32 0 2 0 C2 2.64 2 5.28 2 8 C1.34 7.67 0.68 7.34 0 7 C-0.6875 4 -0.6875 4 -1 1 C-0.67 0.67 -0.34 0.34 0 0 Z " fill="#CC7C32" transform="translate(174,147)"/>
</svg>
