<?xml version="1.0" encoding="UTF-8"?>
<svg version="1.1" xmlns="http://www.w3.org/2000/svg" width="600" height="315">
<path d="M0 0 C84.48 0 168.96 0 256 0 C256 84.48 256 168.96 256 256 C171.52 256 87.04 256 0 256 C0 171.52 0 87.04 0 0 Z " fill="#FADEC2" transform="translate(172,29)"/>
<path d="M0 0 C84.48 0 168.96 0 256 0 C256 84.48 256 168.96 256 256 C171.52 256 87.04 256 0 256 C0 171.52 0 87.04 0 0 Z M10 10 C10 57.19 10 104.38 10 153 C27.49 153 44.98 153 63 153 C63.99 153.33 64.98 153.66 66 154 C68.64 154 71.28 154 74 154 C74 166.87 74 179.74 74 193 C86.35741297 193.0583684 86.35741297 193.0583684 98.71484375 193.09765625 C103.77006334 193.10951751 108.82520911 193.12340116 113.88037109 193.15087891 C117.96529055 193.17293865 122.05013062 193.18463676 126.13510513 193.18975449 C127.67766695 193.19339186 129.22022544 193.2004901 130.76275253 193.21146011 C148.66949695 193.33350324 166.48390544 192.34048647 183 185 C183.33 178.4 183.66 171.8 184 165 C194.54909362 167.88522219 205.06784382 170.8599142 215.5625 173.9375 C216.63604736 174.24880859 217.70959473 174.56011719 218.81567383 174.88085938 C228.03240457 177.59984686 236.89722634 180.78725636 246 184 C246 126.58 246 69.16 246 10 C168.12 10 90.24 10 10 10 Z " fill="#FCF0E3" transform="translate(172,29)"/>
<path d="M0 0 C3.36316602 -0.00218624 6.72600298 -0.02040588 10.08911133 -0.03930664 C29.97329203 -0.09053991 50.14049944 0.15050853 68.2512207 9.28686523 C71.07013782 12.23308829 71.27590865 15.73057467 71.81762695 19.62280273 C71.94049072 20.42379395 72.06335449 21.22478516 72.18994141 22.05004883 C73.10930758 28.44268695 73.40940724 34.72945296 73.06762695 41.18530273 C66.40781686 43.18757257 60.30502894 43.4653049 53.3762207 43.45874023 C51.10993963 43.47901928 48.84366362 43.49986986 46.57739258 43.52124023 C43.03348488 43.54386458 39.4897775 43.560328 35.94580078 43.56616211 C32.50558052 43.57569379 29.06624265 43.60946468 25.6262207 43.64624023 C24.04471474 43.63867203 24.04471474 43.63867203 22.43125916 43.63095093 C16.1100919 43.71523614 12.20617202 44.4095987 7.06762695 48.18530273 C4.45024044 52.28208162 4.76827803 56.47055712 5.06762695 61.18530273 C6.23775921 64.60568933 6.94073419 65.10070756 10.06762695 67.18530273 C20.56694406 69.64456465 31.65789911 69.99293642 42.38012695 70.81030273 C44.10346903 70.94527596 45.82677667 71.08068972 47.55004883 71.21655273 C51.72219606 71.54453828 55.89476097 71.86659758 60.06762695 72.18530273 C60.1048802 74.59039505 60.13209032 76.99490423 60.15356445 79.40014648 C60.16508545 80.07734741 60.17660645 80.75454834 60.18847656 81.45227051 C60.22499041 86.90777188 59.83224198 91.0890895 56.06762695 95.18530273 C46.91309912 102.71619733 34.45212375 105.05932384 22.84106445 105.32592773 C22.11918945 105.34526367 21.39731445 105.36459961 20.65356445 105.38452148 C19.17207221 105.41854869 17.69013265 105.43661828 16.20825195 105.43920898 C12.01482556 105.5819959 10.4809734 105.84720933 7.10668945 108.60717773 C4.26130074 112.20479565 3.70987889 114.38415937 3.79418945 119.02124023 C4.26039369 122.71091373 5.60921611 125.40943944 8.06762695 128.18530273 C19.80603761 135.5856051 38.07845198 133.59775124 51.44262695 133.81030273 C53.45045462 133.84857796 55.45826754 133.88763484 57.46606445 133.92749023 C62.33312915 134.02242808 67.20027013 134.10682785 72.06762695 134.18530273 C72.08123283 136.87151806 72.09109761 139.55766302 72.09887695 142.24389648 C72.10306641 142.99554077 72.10725586 143.74718506 72.11157227 144.52160645 C72.12512561 150.78155592 71.73933069 156.96004849 71.06762695 163.18530273 C62.5243189 167.77337558 53.56573118 168.93675231 44.06762695 170.18530273 C43.39163956 170.27612122 42.71565216 170.3669397 42.0191803 170.46051025 C33.80727522 171.42272551 25.59401692 171.31149359 17.34106445 171.28295898 C15.74109949 171.28109025 14.14113395 171.2796685 12.54116821 171.27867126 C8.36226782 171.27488195 4.18340307 171.26508294 0.0045166 171.25396729 C-4.2726188 171.24367542 -8.54976004 171.2391571 -12.8269043 171.23413086 C-21.1954101 171.2234569 -29.56388712 171.20642439 -37.93237305 171.18530273 C-38.10450505 154.45618928 -38.27094586 137.72702296 -38.43237305 120.99780273 C-38.4442503 119.76727676 -38.45612755 118.53675079 -38.46836472 117.26893616 C-38.83689958 78.90623755 -39.08905141 40.54980891 -38.93237305 2.18530273 C-28.88660753 -2.83758002 -10.93147498 -0.00079334 0 0 Z " fill="#B4661D" transform="translate(283.932373046875,50.814697265625)"/>
<path d="M0 0 C0.75630588 16.1345255 0.75630588 16.1345255 -2.4921875 21.359375 C-10.43379327 30.00050045 -23.79053833 32.59448363 -35.06811523 33.09106445 C-36.13654663 33.11559692 -36.13654663 33.11559692 -37.2265625 33.140625 C-37.9484375 33.15996094 -38.6703125 33.17929688 -39.4140625 33.19921875 C-40.89555474 33.23324596 -42.37749431 33.25131555 -43.859375 33.25390625 C-48.05280139 33.39669317 -49.58665355 33.6619066 -52.9609375 36.421875 C-55.80632622 40.01949292 -56.35774806 42.19885663 -56.2734375 46.8359375 C-55.80723327 50.52561099 -54.45841084 53.22413671 -52 56 C-40.26158934 63.40030237 -21.98917497 61.41244851 -8.625 61.625 C-6.61717234 61.66327523 -4.60935942 61.70233211 -2.6015625 61.7421875 C2.26550219 61.83712534 7.13264318 61.92152512 12 62 C12.01360587 64.68621533 12.02347066 67.37236029 12.03125 70.05859375 C12.03543945 70.81023804 12.03962891 71.56188232 12.04394531 72.33630371 C12.05749865 78.59625319 11.67170373 84.77474576 11 91 C9.70544455 91.74062038 8.38776455 92.44084634 7.0625 93.125 C5.96615234 93.71667969 5.96615234 93.71667969 4.84765625 94.3203125 C0.58608296 95.33747814 -2.83506675 94.11438861 -7 93 C-8.58618072 92.63597993 -10.17343997 92.276629 -11.76171875 91.921875 C-30.8972223 87.43750214 -51.69940196 80.38217479 -62.9375 63.00390625 C-68.66572077 53.38372902 -70.4080829 45.11699907 -69 34 C-65.77728019 24.35644149 -57.27913983 17.56260748 -48.625 12.8125 C-40.44870059 8.98793517 -31.74294898 7.07568726 -23 5 C-21.05967585 4.52694304 -19.11957644 4.05296349 -17.1796875 3.578125 C-13.49536504 2.6834628 -9.81054191 1.79127554 -6.12109375 0.91796875 C-5.3727124 0.74031982 -4.62433105 0.5626709 -3.85327148 0.37963867 C-2 0 -2 0 0 0 Z " fill="#CE8B3C" transform="translate(344,123)"/>
<path d="M0 0 C0 0.66 0 1.32 0 2 C-0.969375 2.12375 -1.93875 2.2475 -2.9375 2.375 C-3.948125 2.58125 -4.95875 2.7875 -6 3 C-6.33 3.66 -6.66 4.32 -7 5 C-5.68 5 -4.36 5 -3 5 C5.71264741 13.81636941 11.46198509 27.62247558 15.375 39.25 C15.61355713 39.95769531 15.85211426 40.66539063 16.09790039 41.39453125 C19.6427342 52.52482259 20.4439655 63.50294828 20.4375 75.125 C20.43790283 75.87021912 20.43830566 76.61543823 20.4387207 77.38323975 C20.33855444 109.75507518 9.32717307 139.34565387 -5 168 C24.7 168.495 24.7 168.495 55 169 C55 169.33 55 169.66 55 170 C34.54 170 14.08 170 -7 170 C-7.170364 153.27086342 -7.33857278 136.54172292 -7.5 119.8125 C-7.51187725 118.58197403 -7.5237545 117.35144806 -7.53599167 116.08363342 C-7.90452654 77.72093481 -8.15667837 39.36450618 -8 1 C-5.29120665 -0.35439668 -2.99066732 -0.06501451 0 0 Z " fill="#BB6F27" transform="translate(253,52)"/>
<path d="M0 0 C0.96258224 -0.00637985 1.92516449 -0.0127597 2.91691589 -0.01933289 C3.95020523 -0.02044571 4.98349457 -0.02155853 6.0480957 -0.02270508 C7.13032913 -0.02603348 8.21256256 -0.02936188 9.32759094 -0.03279114 C11.62317481 -0.03785219 13.91876603 -0.04019972 16.21435547 -0.04003906 C19.66622728 -0.04220023 23.11776587 -0.06029404 26.56958008 -0.0793457 C46.67348941 -0.13014935 66.87210643 0.10650302 85.2199707 9.23120117 C88.10962149 12.27620953 88.22878297 15.77544745 88.78637695 19.83276367 C88.91141602 20.61071289 89.03645508 21.38866211 89.1652832 22.19018555 C89.92933796 27.22371112 90.15267966 32.05702009 90.03637695 37.14526367 C89.08762695 36.27901367 88.13887695 35.41276367 87.16137695 34.52026367 C66.96354603 17.38027169 38.08922788 13.09211338 12.85986328 8.41699219 C12.08663223 8.27284882 11.31340118 8.12870544 10.51673889 7.98019409 C9.04588517 7.7071339 7.57433278 7.43780455 6.10203552 7.17263794 C1.14691192 6.25579864 1.14691192 6.25579864 0.03637695 5.14526367 C-0.95362305 5.14526367 -1.94362305 5.14526367 -2.96362305 5.14526367 C-3.95362305 5.14526367 -4.94362305 5.14526367 -5.96362305 5.14526367 C-6.29362305 4.81526367 -6.62362305 4.48526367 -6.96362305 4.14526367 C-8.96320668 4.10445584 -10.96407559 4.10272011 -12.96362305 4.14526367 C-9.49844389 -0.04942689 -5.1586127 0.02339192 0 0 Z " fill="#C47425" transform="translate(266.963623046875,50.854736328125)"/>
<path d="M0 0 C2.64 0 5.28 0 8 0 C8.391875 1.19625 8.78375 2.3925 9.1875 3.625 C10.16468655 6.58461286 11.19046179 9.51197528 12.27734375 12.43359375 C14.5941146 18.67208684 16.6002148 24.33691332 17 31 C15.35 31 13.7 31 12 31 C10.23537317 27.91190305 10 26.76687864 10 23 C6.37 23 2.74 23 -1 23 C-1.66 25.64 -2.32 28.28 -3 31 C-4.98 31 -6.96 31 -9 31 C-6.60471932 20.47337177 -3.31780699 10.26480091 0 0 Z " fill="#EE8D2B" transform="translate(291,235)"/>
<path d="M0 0 C3.49642065 1.92659913 4.68231206 2.92474851 5.8125 6.75 C5.874375 7.4925 5.93625 8.235 6 9 C3.6875 9.25 3.6875 9.25 1 9 C0.525625 8.34 0.05125 7.68 -0.4375 7 C-0.953125 6.34 -1.46875 5.68 -2 5 C-5.04230823 4.49989476 -5.04230823 4.49989476 -8 5 C-10.40829792 7.40829792 -10.25602579 7.99283556 -10.265625 11.28125 C-10.26820313 12.12300781 -10.27078125 12.96476563 -10.2734375 13.83203125 C-10.26570313 14.71246094 -10.25796875 15.59289062 -10.25 16.5 C-10.25773437 17.38042969 -10.26546875 18.26085937 -10.2734375 19.16796875 C-10.27085937 20.00972656 -10.26828125 20.85148437 -10.265625 21.71875 C-10.26336914 22.49154297 -10.26111328 23.26433594 -10.25878906 24.06054688 C-10.16824373 26.23667061 -10.16824373 26.23667061 -8 28 C-3.65805064 27.90304884 -3.65805064 27.90304884 0 26 C0.36760731 23.67182036 0.70241581 21.3381615 1 19 C-0.98 19 -2.96 19 -5 19 C-5 17.68 -5 16.36 -5 15 C-1.37 15 2.26 15 6 15 C6 20.61 6 26.22 6 32 C3.69 32 1.38 32 -1 32 C-2.37981275 32.1981392 -3.75669092 32.42128087 -5.125 32.6875 C-9 33 -9 33 -11.8125 31.875 C-14.72842619 29.3756347 -16.6816532 26.99562209 -17.3034668 23.09765625 C-17.43934302 20.91140018 -17.45843166 18.75271244 -17.4375 16.5625 C-17.45748047 15.82451172 -17.47746094 15.08652344 -17.49804688 14.32617188 C-17.49340947 9.10908711 -16.44053931 6.12491422 -13 2 C-8.75202637 -0.83198242 -4.98689624 -0.64424018 0 0 Z " fill="#EE8C2A" transform="translate(329,234)"/>
<path d="M0 0 C5.61 0 11.22 0 17 0 C17 1.32 17 2.64 17 4 C13.04 4 9.08 4 5 4 C5 6.97 5 9.94 5 13 C8.63 13 12.26 13 16 13 C16 14.32 16 15.64 16 17 C12.37 17 8.74 17 5 17 C5 20.3 5 23.6 5 27 C8.96 27 12.92 27 17 27 C17 28.32 17 29.64 17 31 C11.39 31 5.78 31 0 31 C0 20.77 0 10.54 0 0 Z " fill="#EE8822" transform="translate(367,235)"/>
<path d="M0 0 C5.61 0 11.22 0 17 0 C17 1.32 17 2.64 17 4 C13.04 4 9.08 4 5 4 C5 6.97 5 9.94 5 13 C8.63 13 12.26 13 16 13 C16 14.32 16 15.64 16 17 C12.37 17 8.74 17 5 17 C5 20.3 5 23.6 5 27 C8.96 27 12.92 27 17 27 C17 28.32 17 29.64 17 31 C11.39 31 5.78 31 0 31 C0 20.77 0 10.54 0 0 Z " fill="#EE8822" transform="translate(261,235)"/>
<path d="M0 0 C1.65 0 3.3 0 5 0 C5 8.91 5 17.82 5 27 C8.96 27 12.92 27 17 27 C17 28.32 17 29.64 17 31 C11.39 31 5.78 31 0 31 C0 20.77 0 10.54 0 0 Z " fill="#EE8822" transform="translate(343,235)"/>
<path d="M0 0 C0.33 0 0.66 0 1 0 C1 8.25 1 16.5 1 25 C-3 27 -3 27 -6 27 C-5.10845431 7.66268147 -5.10845431 7.66268147 0 0 Z " fill="#C06F21" transform="translate(354,189)"/>
<path d="M0 0 C3.5718623 3.5718623 4 8.10186234 4 13 C1.36 13 -1.28 13 -4 13 C-3.71682074 11.39431334 -3.42312209 9.79047953 -3.125 8.1875 C-2.96257812 7.29417969 -2.80015625 6.40085938 -2.6328125 5.48046875 C-2 3 -2 3 0 0 Z " fill="#FADFC4" transform="translate(295,241)"/>
</svg>
